# xmcd
#
# Track frame offsets:
# 150
# 14732
# 24762
# 38305
# 51807
# 64580
# 73475
# 82177
# 93995
# 107472
# 118755
#
# Disc length: 1731 seconds
#
# Revision: 1
# Processed by: cddbd v1.5.1PL0 Copyright (c) Steve Scherf et al.
# Submitted via: Easy CD Ripper v2.37
#
DISCID=8a06c10b
DTITLE=Fats Waller - Ain't Misbehavin'
DYEAR=1996
DGENRE=Blues
TTITLE0=I'm Gonna Sit Right Down And
TTITLE1=Medley:I've Got My Fingers Cros
TTITLE2=Christopher Columbus
TTITLE3=A Thousand Dreams Of You
TTITLE4=Dark Eyes
TTITLE5=Medley:Ain't Misbehaven/HandFul
TTITLE6=Crazy 'Bout My Baby
TTITLE7=Hallelujah
TTITLE8=Lila Low
TTITLE9=It's A Sin To Tell A Lie
TTITLE10=Honeysuckle Rose
EXTD=
EXTT0=
EXTT1=
EXTT2=
EXTT3=
EXTT4=
EXTT5=
EXTT6=
EXTT7=
EXTT8=
EXTT9=
EXTT10=
PLAYORDER=
